<?xml version="1.0" encoding="UTF-8"?>
<svg id="Nutifar_2" data-name="Nutifar 2" xmlns="http://www.w3.org/2000/svg" viewBox="0 0 126.73 147.55">
  <defs>
    <style>
      .cls-1 {
        fill: #fff;
      }

      .cls-2 {
        fill: #fff;
      }
    </style>
  </defs>
  <g id="Nutifar_1-2" data-name="Nutifar 1">
    <g>
      <path class="cls-1" d="M126.73,63.36v63.36h-21.35c-1.91-2.89-3.73-5.7-5.37-8.83-3.33-6.32-5.29-12.99-5.78-20.15l-.74-10.58c-.5-7.32-2.04-14.38-4.79-21.16-.91-2.25-2.09-4.43-3.51-6.46-4.67-7.09-12.7-11.77-21.82-11.77s-16.71,4.43-21.43,11.2c-.02.02-.04.05-.05.08-1.55,2.12-2.83,4.43-3.81,6.81-2.77,6.75-4.35,13.77-4.85,21.09l-.72,10.51c-.49,7.22-2.4,13.93-5.74,20.3-1.67,3.17-3.49,6.03-5.44,8.95H0v-63.36C0,28.37,28.37,0,63.36,0c17.49,0,33.33,7.09,44.8,18.56,11.47,11.46,18.56,27.3,18.56,44.8Z"/>
      <path class="cls-2" d="M83.26,126.73c0,12.97-8.91,20.82-19.9,20.82s-19.9-7.85-19.9-20.82"/>
    </g>
  </g>
</svg>