<?xml version="1.0" encoding="UTF-8"?>
<svg id="Layer_2" data-name="Layer 2" xmlns="http://www.w3.org/2000/svg" viewBox="0 0 172.85 110.93">
  <defs>
    <style>
      .cls-1 {
        fill: #231f20;
      }

      .cls-2 {
        fill: #0080ff;
      }
    </style>
  </defs>
  <g id="Layer_1-2" data-name="Layer 1">
    <g>
      <path class="cls-1" d="M112.96,26.54v26.54h-8.94c-.8-1.21-1.56-2.39-2.25-3.7-1.39-2.65-2.21-5.44-2.42-8.44l-.31-4.43c-.21-3.06-.85-6.02-2.01-8.86-.38-.94-.88-1.86-1.47-2.7-1.96-2.97-5.32-4.93-9.14-4.93s-7,1.85-8.97,4.69c0,0-.02.02-.02.03-.65.89-1.18,1.85-1.59,2.85-1.16,2.83-1.82,5.77-2.03,8.83l-.3,4.4c-.21,3.02-1,5.83-2.4,8.5-.7,1.33-1.46,2.53-2.28,3.75h-8.93v-26.54c0-14.66,11.88-26.54,26.54-26.54,7.33,0,13.96,2.97,18.76,7.77,4.8,4.8,7.77,11.43,7.77,18.76Z"/>
      <path class="cls-2" d="M94.76,53.07c0,5.43-3.73,8.72-8.33,8.72s-8.33-3.29-8.33-8.72"/>
      <g>
        <path d="M0,76.9c0-2.4,1.86-4.26,4.26-4.26,1.54,0,2.66.64,3.52,1.76l17.95,22.8v-20.77c0-2.13,1.65-3.78,3.78-3.78s3.83,1.65,3.83,3.78v30.2c0,2.4-1.86,4.26-4.31,4.26-1.49,0-2.61-.69-3.46-1.76l-17.95-22.74v20.67c0,2.18-1.65,3.83-3.78,3.83s-3.83-1.65-3.83-3.83v-30.15Z"/>
        <path d="M42.45,82.43c2.02,0,3.57,1.6,3.57,3.62v12.73c0,3.36,2.34,5.54,5.7,5.54s5.7-2.18,5.7-5.54v-12.73c0-2.02,1.6-3.62,3.62-3.62s3.57,1.6,3.57,3.62v12.73c0,7.24-5.43,12.14-12.89,12.14s-12.89-4.9-12.89-12.14v-12.73c0-2.02,1.6-3.62,3.62-3.62Z"/>
        <path d="M67.44,86.11c0-1.81,1.38-3.2,3.2-3.2h2.82v-6.66c0-2.08,1.6-3.62,3.62-3.62s3.57,1.54,3.57,3.62v6.66h4.42c1.81,0,3.2,1.39,3.2,3.2s-1.38,3.14-3.2,3.14h-4.42v10.92c0,2.98,1.38,4.15,4.42,3.89,1.76-.11,3.2,1.38,3.2,3.2s-1.38,2.93-3.2,3.14c-7.99.96-11.61-3.25-11.61-10.65v-10.49h-2.82c-1.81,0-3.2-1.38-3.2-3.14Z"/>
        <path d="M96.09,70.98c2.34,0,4.31,1.92,4.31,4.31s-1.97,4.31-4.31,4.31-4.37-1.97-4.37-4.31,1.97-4.31,4.37-4.31ZM96.09,82.43c2.02,0,3.57,1.6,3.57,3.62v21.2c0,2.08-1.54,3.62-3.57,3.62s-3.62-1.55-3.62-3.62v-21.2c0-2.02,1.6-3.62,3.62-3.62Z"/>
        <path d="M120.43,70.98c1.81.21,3.2,1.33,3.2,3.14s-1.44,3.3-3.2,3.2c-3.04-.27-4.42.91-4.42,3.89v1.7h4.42c1.81,0,3.2,1.39,3.2,3.2s-1.38,3.14-3.2,3.14h-4.42v18c0,2.08-1.54,3.62-3.57,3.62s-3.62-1.55-3.62-3.62v-18h-2.82c-1.81,0-3.2-1.38-3.2-3.14s1.38-3.2,3.2-3.2h2.82v-1.28c0-7.4,3.62-11.61,11.61-10.65Z"/>
        <path d="M135.19,94.21l4.47-.43c1.7-.11,2.56-.75,2.56-2.18,0-2.02-1.92-3.3-4.47-3.3s-4.26,1.06-6.13,3.3c-.69.69-1.54,1.17-2.61,1.17-1.86,0-3.36-1.44-3.36-3.36,0-4.05,6.5-7.03,12.04-7.03,6.66,0,11.72,3.41,11.72,10.65v14.22c0,2.08-1.54,3.62-3.62,3.62s-3.57-1.55-3.57-3.62v-3.41c-1.6,4.69-4.69,7.08-9.48,7.08-4.31,0-8.15-3.04-8.15-7.88,0-6.29,5.49-8.36,10.6-8.84ZM135.3,105.23c3.78,0,6.92-3.04,6.92-6.34v-.59c-.48.37-1.28.53-2.45.69l-4.63.53c-2.08.27-3.36,1.33-3.36,2.93s1.33,2.77,3.52,2.77Z"/>
        <path d="M158.52,82.43c2.02,0,3.57,1.6,3.57,3.62v3.67c1.76-6.6,5.49-7.4,7.3-7.35,1.97,0,3.46,1.49,3.46,3.41s-1.6,3.73-4.26,3.36c-4.31-.48-6.5,2.66-6.5,5.86v12.25c0,2.08-1.54,3.62-3.57,3.62s-3.62-1.55-3.62-3.62v-21.2c0-2.02,1.6-3.62,3.62-3.62Z"/>
      </g>
    </g>
  </g>
</svg>